<?xml version="1.0" encoding="UTF-8" standalone="no"?>
<!-- Created with Inkscape (http://www.inkscape.org/) -->

<svg
   xmlns:dc="http://purl.org/dc/elements/1.1/"
   xmlns:cc="http://creativecommons.org/ns#"
   xmlns:rdf="http://www.w3.org/1999/02/22-rdf-syntax-ns#"
   xmlns:svg="http://www.w3.org/2000/svg"
   xmlns="http://www.w3.org/2000/svg"
   version="1.1"
   width="2427.25"
   height="527.36377"
   id="svg3004"
   xml:space="preserve"><metadata
     id="metadata3010"><rdf:RDF><cc:Work
         rdf:about=""><dc:format>image/svg+xml</dc:format><dc:type
           rdf:resource="http://purl.org/dc/dcmitype/StillImage" /><dc:title></dc:title></cc:Work></rdf:RDF></metadata><defs
     id="defs3008"><clipPath
       id="clipPath3022"><path
         d="m 0,421.891 1941.804,0 L 1941.804,0 0,0 0,421.891 z"
         id="path3024" /></clipPath><clipPath
       id="clipPath3100"><path
         d="m 0,421.891 1941.804,0 L 1941.804,0 0,0 0,421.891 z"
         id="path3102" /></clipPath></defs><g
     transform="matrix(1.25,0,0,-1.25,0,527.36375)"
     id="g3012"><g
       transform="translate(589.6367,249.8828)"
       id="g3014"><path
         d="m 0,0 0,143.72 98.58,0 0,-34.411 -59.107,0 0,-23.887 48.176,0 0,-31.983 -48.176,0 L 39.473,0 0,0 z"
         id="path3016"
         style="fill:#231f20;fill-opacity:1;fill-rule:nonzero;stroke:none" /></g><g
       id="g3018"><g
         clip-path="url(#clipPath3022)"
         id="g3020"><g
           transform="translate(769.7944,323.5649)"
           id="g3026"><path
             d="m 0,0 c -14.777,0 -27.935,-3.037 -33.805,-10.526 l 0,-63.156 -38.46,0 0,106.474 35.222,0 0,-20.242 c 7.489,14.17 19.432,22.267 32.185,22.267 2.834,0 3.846,0 4.858,-0.203 L 0,0 z"
             id="path3028"
             style="fill:#231f20;fill-opacity:1;fill-rule:nonzero;stroke:none" /></g><g
           transform="translate(850.3594,314.4556)"
           id="g3030"><path
             d="M 0,0 C -1.214,10.324 -7.895,16.599 -17.611,16.599 -27.327,16.599 -34.007,10.324 -35.222,0 L 0,0 z m -75.301,-12.752 c 0,30.768 20.242,56.678 58.298,56.678 38.055,0 58.297,-25.91 58.297,-55.261 0,-4.049 -0.404,-8.502 -1.012,-11.741 l -74.694,0 c 0.81,-11.336 9.716,-15.991 18.623,-15.991 8.299,0 16.801,4.048 19.23,10.728 l 32.59,-9.311 c -8.704,-17.004 -27.124,-28.947 -53.034,-28.947 -37.449,0 -58.298,25.303 -58.298,53.845"
             id="path3032"
             style="fill:#231f20;fill-opacity:1;fill-rule:nonzero;stroke:none" /></g><path
           d="m 904.403,356.357 38.46,0 0,-106.475 -38.46,0 0,106.475 z m 0,41.295 38.46,0 0,-32.388 -38.46,0 0,32.388 z"
           id="path3034"
           style="fill:#231f20;fill-opacity:1;fill-rule:nonzero;stroke:none" /><g
           transform="translate(970.3926,249.8828)"
           id="g3036"><path
             d="m 0,0 0,65.18 -13.158,0 0,28.947 13.158,0 0,11.538 c 0,26.72 15.586,44.128 39.067,44.128 9.11,0 18.826,-2.024 29.554,-6.073 l -6.477,-29.149 c -4.454,1.62 -10.324,2.834 -14.373,2.834 -6.275,0 -9.311,-3.441 -9.311,-10.323 l 0,-12.955 23.279,0 0,-28.947 -23.279,0 L 38.46,0 0,0 z"
             id="path3038"
             style="fill:#231f20;fill-opacity:1;fill-rule:nonzero;stroke:none" /></g><g
           transform="translate(1044.6797,286.3188)"
           id="g3040"><path
             d="m 0,0 0,70.039 38.461,0 0,-61.335 c 0,-9.311 4.453,-14.777 11.74,-14.777 5.87,0 12.146,1.822 18.421,10.931 l 0,65.181 38.46,0 0,-63.966 c 0,-7.287 2.227,-9.717 9.312,-10.121 l 0,-32.388 c -7.693,-1.417 -13.563,-2.024 -18.218,-2.024 -12.955,0 -20.648,4.858 -22.672,14.776 l -0.81,3.847 C 64.775,-32.995 50.809,-38.46 33.197,-38.46 11.741,-38.46 0,-24.898 0,0"
             id="path3042"
             style="fill:#231f20;fill-opacity:1;fill-rule:nonzero;stroke:none" /></g><g
           transform="translate(1283.3359,249.8828)"
           id="g3044"><path
             d="m 0,0 -38.46,0 0,59.917 c 0,10.526 -5.466,14.979 -11.74,14.979 -6.478,0 -14.98,-6.274 -18.421,-15.181 l 0,-59.715 -38.461,0 0,106.475 34.615,0 0,-15.789 c 7.489,11.538 21.659,17.813 40.079,17.813 C -3.441,108.499 0,84.613 0,70.039 L 0,0 z"
             id="path3046"
             style="fill:#231f20;fill-opacity:1;fill-rule:nonzero;stroke:none" /></g><g
           transform="translate(1372.1973,249.8828)"
           id="g3048"><path
             d="m 0,0 -24.088,38.865 -7.692,-8.502 0,-30.363 -38.46,0 0,147.769 38.46,0 0,-80.767 28.339,39.473 40.485,0 L 0.405,59.917 40.688,0 0,0 z"
             id="path3050"
             style="fill:#231f20;fill-opacity:1;fill-rule:nonzero;stroke:none" /></g><g
           transform="translate(629.1094,126)"
           id="g3052"><path
             d="m 0,0 24.898,0 c 4.858,0 9.919,5.668 9.919,15.385 0,9.918 -6.073,15.384 -10.931,15.384 L 0,30.769 0,0 z m -39.473,-78.54 0,143.72 65.991,0 c 28.136,0 48.378,-25.302 48.378,-49.795 0,-16.6 -7.691,-31.984 -20.646,-41.093 l 32.387,-52.832 -44.533,0 -27.327,44.128 -14.777,0 0,-44.128 -39.473,0 z"
             id="path3054"
             style="fill:#231f20;fill-opacity:1;fill-rule:nonzero;stroke:none" /></g><g
           transform="translate(831.7334,47.46)"
           id="g3056"><path
             d="m 0,0 -38.46,0 0,59.917 c 0,10.526 -5.264,14.979 -12.349,14.979 -5.06,0 -14.169,-5.87 -17.813,-15.181 l 0,-59.715 -38.46,0 0,147.769 38.46,0 0,-57.083 c 7.49,11.538 20.243,17.813 35.222,17.813 C -3.441,108.499 0,85.625 0,70.038 L 0,0 z"
             id="path3058"
             style="fill:#231f20;fill-opacity:1;fill-rule:nonzero;stroke:none" /></g><g
           transform="translate(919.7847,112.0332)"
           id="g3060"><path
             d="M 0,0 C -1.214,10.323 -7.895,16.599 -17.611,16.599 -27.327,16.599 -34.007,10.323 -35.222,0 L 0,0 z m -75.301,-12.753 c 0,30.769 20.242,56.679 58.298,56.679 38.055,0 58.297,-25.91 58.297,-55.262 0,-4.049 -0.405,-8.502 -1.012,-11.74 l -74.694,0 c 0.81,-11.336 9.716,-15.992 18.623,-15.992 8.299,0 16.801,4.048 19.23,10.728 l 32.591,-9.311 c -8.705,-17.003 -27.125,-28.947 -53.035,-28.947 -37.449,0 -58.298,25.303 -58.298,53.845"
             id="path3062"
             style="fill:#231f20;fill-opacity:1;fill-rule:nonzero;stroke:none" /></g><path
           d="m 973.828,153.935 38.461,0 0,-106.475 -38.461,0 0,106.475 z m 0,41.294 38.461,0 0,-32.388 -38.461,0 0,32.388 z"
           id="path3064"
           style="fill:#231f20;fill-opacity:1;fill-rule:nonzero;stroke:none" /><g
           transform="translate(1138.8018,47.46)"
           id="g3066"><path
             d="m 0,0 -38.46,0 0,59.917 c 0,10.526 -5.466,14.979 -11.74,14.979 -6.478,0 -14.98,-6.275 -18.421,-15.181 l 0,-59.715 -38.46,0 0,106.475 34.614,0 0,-15.789 c 7.489,11.538 21.659,17.813 40.079,17.813 C -3.44,108.499 0,84.613 0,70.038 L 0,0 z"
             id="path3068"
             style="fill:#231f20;fill-opacity:1;fill-rule:nonzero;stroke:none" /></g><path
           d="m 1157.827,120.535 63.358,0 0,-34.412 -63.358,0 0,34.412 z"
           id="path3070"
           style="fill:#231f20;fill-opacity:1;fill-rule:nonzero;stroke:none" /><g
           transform="translate(1283.126,118.1055)"
           id="g3072"><path
             d="m 0,0 0,-70.646 -39.473,0 0,143.721 30.769,0 L 48.986,0 l 0,73.075 39.473,0 0,-143.721 -31.376,0 L 0,0 z"
             id="path3074"
             style="fill:#231f20;fill-opacity:1;fill-rule:nonzero;stroke:none" /></g><g
           transform="translate(1461.0566,112.0332)"
           id="g3076"><path
             d="M 0,0 C -1.215,10.323 -7.895,16.599 -17.611,16.599 -27.327,16.599 -34.007,10.323 -35.222,0 L 0,0 z m -75.302,-12.753 c 0,30.769 20.242,56.679 58.298,56.679 38.056,0 58.298,-25.91 58.298,-55.262 0,-4.049 -0.404,-8.502 -1.012,-11.74 l -74.694,0 c 0.809,-11.336 9.717,-15.992 18.623,-15.992 8.3,0 16.801,4.048 19.23,10.728 l 32.59,-9.311 c -8.704,-17.003 -27.125,-28.947 -53.035,-28.947 -37.448,0 -58.298,25.303 -58.298,53.845"
             id="path3078"
             style="fill:#231f20;fill-opacity:1;fill-rule:nonzero;stroke:none" /></g><g
           transform="translate(1567.7305,155.959)"
           id="g3080"><path
             d="M 0,0 C 25.707,0 43.318,-11.943 52.022,-28.946 L 14.574,-40.282 c -3.441,5.06 -8.502,7.894 -14.777,7.894 -10.526,0 -18.825,-8.502 -18.825,-22.874 0,-14.372 8.299,-22.874 18.825,-22.874 6.275,0 11.336,2.834 14.777,7.895 L 52.022,-81.577 C 43.318,-98.58 25.707,-110.523 0,-110.523 c -37.651,0 -58.501,26.112 -58.501,55.261 C -58.501,-26.113 -37.651,0 0,0"
             id="path3082"
             style="fill:#231f20;fill-opacity:1;fill-rule:nonzero;stroke:none" /></g><g
           transform="translate(1701.9346,47.46)"
           id="g3084"><path
             d="m 0,0 -24.088,38.865 -7.692,-8.502 0,-30.363 -38.461,0 0,147.769 38.461,0 0,-80.767 28.339,39.473 40.485,0 L 0.405,59.917 40.688,0 0,0 z"
             id="path3086"
             style="fill:#231f20;fill-opacity:1;fill-rule:nonzero;stroke:none" /></g><g
           transform="translate(1803.7529,77.0137)"
           id="g3088"><path
             d="m 0,0 c 3.036,2.024 5.061,4.858 5.061,7.489 l 0,7.895 c -4.454,1.62 -10.527,2.834 -14.778,2.834 -9.31,0 -16.395,-5.263 -16.395,-12.146 0,-5.87 5.262,-10.121 12.549,-10.121 4.657,0 9.919,1.62 13.563,4.049 m -62.347,2.632 c 0,21.457 19.029,36.435 45.951,36.435 8.299,0 15.991,-1.417 21.457,-4.047 l 0,3.238 c 0,9.919 -5.466,14.777 -18.421,14.777 -11.943,0 -21.66,-4.049 -32.994,-11.538 l -11.134,23.886 c 14.17,9.109 29.756,13.562 47.974,13.562 33.805,0 53.035,-15.384 53.035,-45.342 l 0,-20.648 c 0,-7.287 2.227,-9.716 9.311,-10.121 l 0,-32.388 c -7.084,-1.417 -13.359,-2.024 -18.218,-2.024 -13.764,0 -20.647,5.06 -22.671,14.777 l -0.81,3.846 c -9.514,-12.146 -22.267,-18.623 -36.234,-18.623 -21.253,0 -37.246,14.574 -37.246,34.21"
             id="path3090"
             style="fill:#231f20;fill-opacity:1;fill-rule:nonzero;stroke:none" /></g><g
           transform="translate(1941.8037,121.1416)"
           id="g3092"><path
             d="m 0,0 c -14.777,0 -27.935,-3.036 -33.805,-10.525 l 0,-63.157 -38.46,0 0,106.475 35.221,0 0,-20.242 c 7.49,14.169 19.433,22.266 32.186,22.266 2.834,0 3.845,0 4.858,-0.203 L 0,0 z"
             id="path3094"
             style="fill:#231f20;fill-opacity:1;fill-rule:nonzero;stroke:none" /></g></g></g><g
       id="g3096"><g
         clip-path="url(#clipPath3100)"
         id="g3098"><g
           transform="translate(421.8906,210.9453)"
           id="g3104"><path
             d="m 0,0 c 0,-116.5 -94.445,-210.945 -210.945,-210.945 -116.5,0 -210.946,94.445 -210.946,210.945 0,116.5 94.446,210.945 210.946,210.945 C -94.445,210.945 0,116.5 0,0"
             id="path3106"
             style="fill:#231f20;fill-opacity:1;fill-rule:nonzero;stroke:none" /></g><g
           transform="translate(198.1719,210.9062)"
           id="g3108"><path
             d="M 0,0 -51.055,51.469 -101.852,-0.266 -50.797,-51.75 0,0 z M 128.492,0.328 77.438,51.813 26.633,0.078 77.672,-51.414 128.492,0.328 z M 77.406,74.453 c 2.492,0 4.86,-1 6.641,-2.765 L 148.25,6.937 c 3.609,-3.64 3.641,-9.468 0.031,-13.117 L 84.414,-71.25 c -1.75,-1.781 -4.141,-2.789 -6.656,-2.805 -2.164,-0.062 -4.891,1 -6.656,2.766 l -57.743,58.242 -57.445,-58.531 c -1.742,-1.774 -4.133,-2.781 -6.656,-2.797 l -0.016,0 c -2.492,0 -4.883,0.992 -6.633,2.766 l -64.218,64.726 c -3.602,3.633 -3.618,9.461 -0.047,13.125 l 63.89,65.071 c 1.735,1.789 4.133,2.804 6.625,2.804 l 0.024,0 c 2.5,0 4.883,-0.984 6.656,-2.773 L 13.281,13.125 70.734,71.656 c 1.743,1.766 4.141,2.782 6.649,2.797 l 0.023,0 z"
             id="path3110"
             style="fill:#ffffff;fill-opacity:1;fill-rule:nonzero;stroke:none" /></g></g></g></g></svg>