<?xml version="1.0" encoding="utf-8"?>
<!-- Generator: Adobe Illustrator 16.0.4, SVG Export Plug-In . SVG Version: 6.00 Build 0)  -->
<!DOCTYPE svg PUBLIC "-//W3C//DTD SVG 1.1//EN" "http://www.w3.org/Graphics/SVG/1.1/DTD/svg11.dtd">
<svg version="1.1" id="Logo" xmlns="http://www.w3.org/2000/svg" xmlns:xlink="http://www.w3.org/1999/xlink" x="0px" y="0px"
	 width="421.891px" height="421.891px" viewBox="-913.482 -209.553 421.891 421.891"
	 enable-background="new -913.482 -209.553 421.891 421.891" xml:space="preserve">
<circle id="Kreis_2_" fill="#231F20" cx="-702.536" cy="1.392" r="210.945"/>
<path id="path3202_2_" inkscape:connector-curvature="0" fill="#FFFFFF" d="M-766.066,75.806c-2.492,0-4.859-1-6.641-2.766
	l-64.203-64.75c-3.609-3.641-3.641-9.469-0.031-13.117l63.867-65.07c1.75-1.781,4.141-2.789,6.656-2.805
	c2.164-0.062,4.891,1,6.656,2.766l57.742,58.242l57.445-58.531c1.742-1.773,4.133-2.781,6.656-2.797h0.016
	c2.492,0,4.883,0.992,6.633,2.766L-567.05-5.53c3.602,3.633,3.617,9.461,0.047,13.125l-63.891,65.07
	c-1.734,1.789-4.133,2.805-6.625,2.805h-0.023c-2.5,0-4.883-0.984-6.656-2.773l-57.742-58.219l-57.453,58.531
	c-1.742,1.766-4.141,2.781-6.648,2.797C-766.042,75.806-766.05,75.806-766.066,75.806z M-817.152,1.681l51.055,51.484l50.805-51.734
	l-51.039-51.492L-817.152,1.681z M-688.659,1.353l51.055,51.469l50.797-51.734l-51.055-51.484L-688.659,1.353z"/>
</svg>
